<svg width="170" height="30" viewBox="0 0 170 30" fill="none" xmlns="http://www.w3.org/2000/svg">
<path d="M60.8976 8.63477C55.7981 8.63477 52.8843 11.7838 52.8843 17.1705C52.8843 22.5572 56.239 25.5969 61.6571 25.7414C64.1949 25.8025 66.288 25.1708 68.0923 24.467C68.1199 24.4563 68.1436 24.4375 68.1602 24.413C68.1767 24.3884 68.1853 24.3595 68.1849 24.3299V20.6604C68.1853 20.6477 68.1825 20.6352 68.1766 20.624C68.1707 20.6128 68.1619 20.6034 68.1512 20.5967C68.1405 20.5899 68.1283 20.5861 68.1157 20.5856C68.103 20.585 68.0905 20.5878 68.0793 20.5937C66.3936 21.4643 64.1708 21.9737 62.6648 21.9737C59.8863 21.9737 58.158 21.0975 57.8394 18.8339H68.7184C68.74 18.8339 68.7607 18.8253 68.776 18.8101C68.7913 18.7948 68.7998 18.774 68.7998 18.7524V17.7984C68.7925 12.9341 66.9772 8.63477 60.8976 8.63477ZM57.7783 15.6312C57.9024 13.7547 58.8693 12.2154 60.8902 12.2154C63.1261 12.2154 63.9967 13.7547 63.9967 15.6312H57.7783Z" fill="#0C75BA"/>
<path d="M79.8968 8.92383C77.322 8.92383 75.6364 9.69628 74.5249 12.0506H74.4601V9.18131C74.4601 9.14398 74.4453 9.10818 74.4189 9.0818C74.3925 9.05533 74.3567 9.04057 74.3193 9.04057H70.2775C70.2401 9.04057 70.2043 9.05533 70.1779 9.0818C70.1515 9.10818 70.1367 9.14398 70.1367 9.18131V25.2229C70.1367 25.2602 70.1515 25.296 70.1779 25.3224C70.2043 25.3488 70.2401 25.3636 70.2775 25.3636H74.814C74.8513 25.3636 74.8871 25.3488 74.9135 25.3224C74.9399 25.296 74.9547 25.2602 74.9547 25.2229V18.4691C74.9547 14.9626 76.1495 13.3621 78.4742 13.3621C80.0062 13.3621 81.3046 14.3957 81.3046 17.467V25.2229C81.3046 25.2602 81.3195 25.296 81.3458 25.3224C81.3722 25.3488 81.4081 25.3636 81.4454 25.3636H85.9873C86.0246 25.3636 86.0602 25.3488 86.0874 25.3224C86.1137 25.296 86.1281 25.2602 86.1281 25.2229V15.4386C86.1298 12.0562 84.3407 8.92383 79.8968 8.92383Z" fill="#0C75BA"/>
<path d="M29.5651 15.0582C27.0254 14.5025 26.6253 14.2228 26.6253 13.4855C26.6253 12.6501 27.433 12.1592 28.8482 12.1592C30.2634 12.1592 31.612 12.4779 33.1568 13.1688C33.1726 13.1763 33.1899 13.1796 33.2073 13.1786C33.2247 13.1776 33.2415 13.1723 33.2562 13.163C33.271 13.1538 33.2832 13.141 33.2918 13.1258C33.3003 13.1106 33.3048 13.0936 33.305 13.0762V9.39917C33.308 9.34894 33.2948 9.29906 33.2675 9.25672C33.2402 9.21447 33.2002 9.18198 33.1531 9.16391C31.812 8.71571 30.2875 8.55078 28.4852 8.55078C23.9635 8.55078 21.335 10.6143 21.335 13.843C21.335 16.5901 22.8168 17.8812 26.2827 18.6814C28.9463 19.302 29.3539 19.578 29.3539 20.3782C29.3539 21.3304 28.3944 21.6749 27.0903 21.6749C25.5063 21.6524 23.9387 21.3507 22.4593 20.7839C22.4435 20.7778 22.4265 20.7758 22.4097 20.7778C22.3929 20.7798 22.3769 20.786 22.363 20.7957C22.3491 20.8054 22.3378 20.8183 22.33 20.8334C22.3223 20.8484 22.3184 20.8651 22.3186 20.8821L22.3815 24.5868C22.3822 24.6347 22.3988 24.6811 22.4286 24.7186C22.4584 24.7562 22.4999 24.7828 22.5465 24.7942C24.0991 25.1652 25.6885 25.3603 27.2848 25.3759C31.8379 25.3759 34.7443 23.4365 34.7443 19.9855C34.7351 16.4382 32.2269 15.6473 29.5651 15.0582Z" fill="#0C75BA"/>
<path d="M14.8792 7.70304L12.3322 1.15305C12.1981 0.813054 11.9649 0.521261 11.6628 0.315617C11.3607 0.109975 11.0037 0 10.6382 0C10.2727 0 9.9157 0.109975 9.61359 0.315617C9.31148 0.521261 9.07825 0.813054 8.94421 1.15305L7.10107 5.86734H7.89574C11.6653 5.86734 14.694 7.59931 14.8792 7.70304Z" fill="#0C75BA"/>
<path d="M17.5424 14.5151C16.743 12.5006 15.3574 10.7725 13.5647 9.55453C11.772 8.3365 9.65501 7.68474 7.4877 7.68359H6.3911L0.0689541 23.8807C0.00725705 24.0476 -0.0134678 24.2269 0.00851793 24.4035C0.0305037 24.58 0.0945583 24.7487 0.195298 24.8954C0.296039 25.0421 0.430518 25.1624 0.587433 25.2463C0.744346 25.3302 0.919108 25.3752 1.09702 25.3774H4.14788C4.28469 25.379 4.41874 25.3389 4.53222 25.2625C4.64571 25.186 4.73326 25.0769 4.78324 24.9495L6.20401 21.3911C6.23952 21.2971 6.3029 21.2163 6.38567 21.1594C6.46844 21.1023 6.56664 21.0721 6.6671 21.0726H14.6026C14.7032 21.0721 14.8013 21.1023 14.8841 21.1594C14.9668 21.2163 15.0302 21.2971 15.0658 21.3911L16.481 24.9495C16.5309 25.0769 16.6185 25.186 16.732 25.2625C16.8455 25.3389 16.9795 25.379 17.1163 25.3774H20.1672C20.3447 25.3781 20.5197 25.3356 20.6771 25.2536C20.8344 25.1716 20.9696 25.0525 21.0707 24.9068C21.1719 24.7609 21.2361 24.5927 21.2578 24.4165C21.2795 24.2404 21.258 24.0616 21.1953 23.8956L17.5424 14.5151ZM12.754 17.2474H8.5158C8.44144 17.2479 8.36812 17.2302 8.30219 17.1959C8.23626 17.1615 8.17973 17.1116 8.13754 17.0504C8.09534 16.9892 8.06876 16.9186 8.0601 16.8448C8.05145 16.771 8.06098 16.6962 8.08787 16.6268L10.0403 11.72C10.0869 11.6023 10.1679 11.5013 10.2725 11.4301C10.3772 11.359 10.5009 11.321 10.6275 11.321C10.754 11.321 10.8777 11.359 10.9824 11.4301C11.0871 11.5013 11.168 11.6023 11.2147 11.72L13.1671 16.6268C13.1935 16.695 13.2032 16.7684 13.1953 16.8412C13.1874 16.9139 13.1622 16.9835 13.1217 17.0443C13.0811 17.1052 13.0266 17.1554 12.9626 17.1908C12.8986 17.2261 12.827 17.2455 12.754 17.2474Z" fill="#0C75BA"/>
<path d="M45.2934 9.03414C43.1058 9.03414 41.3183 10.0826 40.1531 11.8016V9.08419C40.1531 9.04686 40.1383 9.01098 40.1119 8.98459C40.0855 8.95821 40.0497 8.94336 40.0124 8.94336H35.889C35.852 8.94387 35.8166 8.95889 35.7906 8.98527C35.7646 9.01165 35.75 9.04712 35.75 9.08419V29.8585C35.75 29.8955 35.7646 29.9311 35.7906 29.9574C35.8166 29.9838 35.852 29.9988 35.889 29.9993H40.4458C40.4831 29.9993 40.5189 29.9844 40.5453 29.9581C40.5717 29.9317 40.5866 29.8959 40.5866 29.8585V22.8492C41.7943 24.2996 43.4651 25.1683 45.2934 25.1683C49.4002 25.1683 51.8712 21.7451 51.8712 16.7696C51.8712 12.6296 49.5168 9.03414 45.2934 9.03414ZM43.8449 21.4691C42.0852 21.4691 40.6218 19.6686 40.6218 17.2605C40.6218 14.7895 41.9184 12.9538 43.8449 12.9538C45.8936 12.9538 47.0402 14.858 47.0402 17.029C47.0458 19.6686 45.8381 21.4691 43.8449 21.4691Z" fill="#0C75BA"/>
<path d="M160.759 15.6318C160.759 11.2916 158.923 9.04102 154.353 9.04102C152.502 9.0534 150.69 9.5716 149.111 10.5396L149.27 13.0384C150.458 12.0363 152.235 11.4157 153.902 11.4157C156.841 11.4157 157.842 12.8235 157.842 15.5706C156.689 15.5077 155.868 15.5077 154.716 15.5077C151.686 15.5077 147.307 16.758 147.307 20.761C147.307 24.2249 149.715 25.729 153.153 25.729C155.837 25.729 157.397 24.2583 158.088 23.2858H158.149V25.3493H160.903C160.833 24.8806 160.772 24.0379 160.772 22.2299L160.759 15.6318ZM157.817 19.1679C157.817 21.5427 156.286 23.3562 153.381 23.3562C152.034 23.3562 150.417 22.4466 150.417 20.7628C150.417 17.9453 154.35 17.6972 155.945 17.6972C156.572 17.6972 157.193 17.7601 157.821 17.7601L157.817 19.1679Z" fill="#0C75BA"/>
<path d="M142.628 20.5097V11.7869H146.844V9.41397H142.628V5.17578L139.689 6.11493V9.41397H136.087V11.7869H139.683V21.1043C139.683 24.2848 141.559 25.7352 144.59 25.7352C145.527 25.7352 146.431 25.4796 147.087 25.2944V22.7881C146.489 23.1664 145.793 23.3597 145.086 23.3439C143.74 23.3475 142.628 22.3528 142.628 20.5097Z" fill="#0C75BA"/>
<path d="M165.886 5.01172H162.954V25.3489H165.886V5.01172Z" fill="#0C75BA"/>
<path d="M130.428 9.04102C128.205 9.04102 126.086 10.132 125.21 11.9474H125.154V9.41524H122.305V25.3456H125.245V17.9787C125.245 14.0999 126.741 11.4157 130.089 11.4157C132.649 11.5751 133.464 13.383 133.464 17.1025V25.3493H136.396V15.8799C136.396 11.6029 134.555 9.04102 130.428 9.04102Z" fill="#0C75BA"/>
<path d="M94.3478 5.35547H88.5576V25.3759H94.3478C100.807 25.3759 104.803 21.9046 104.803 15.1879C104.803 9.02683 100.166 5.35547 94.3478 5.35547ZM94.3199 22.8493H91.3675V7.88026H94.6516C98.695 7.88026 101.814 10.6273 101.814 15.3064C101.822 20.4634 99.1514 22.8493 94.3199 22.8493Z" fill="#0C75BA"/>
<path d="M113.623 9.04102C109.124 9.04102 106.148 12.3753 106.148 17.1025C106.148 22.2892 108.742 25.729 114.402 25.729C117.026 25.729 118.478 25.0326 119.613 24.6176V21.6853C118.895 22.278 116.464 23.3524 114.527 23.3524C113.831 23.3557 113.143 23.2202 112.501 22.9536C111.859 22.687 111.277 22.2948 110.788 21.8001C110.3 21.3054 109.915 20.718 109.657 20.0727C109.399 19.4272 109.272 18.7367 109.285 18.0417H120.656C120.647 12.9125 118.93 9.04102 113.623 9.04102ZM109.285 15.8541C109.505 13.7905 110.692 11.4084 113.562 11.4084C116.096 11.4084 117.537 13.4089 117.537 15.8541H109.285Z" fill="#0C75BA"/>
<path d="M167.264 5.7062C167.079 5.66174 166.894 5.61729 166.894 5.41723C166.894 5.21718 167.049 5.14678 167.248 5.14678C167.445 5.14678 167.592 5.2357 167.598 5.42278H167.794C167.783 5.12641 167.542 4.97266 167.238 4.97266C166.935 4.97266 166.703 5.12456 166.703 5.42649C166.703 5.72843 166.969 5.81734 167.201 5.87291C167.37 5.91366 167.616 5.95627 167.616 6.17115C167.616 6.336 167.47 6.43233 167.277 6.43233C167.225 6.43893 167.171 6.43426 167.121 6.41862C167.07 6.40298 167.024 6.37674 166.985 6.34165C166.946 6.30657 166.913 6.26346 166.892 6.2152C166.871 6.16695 166.86 6.11466 166.86 6.06186H166.656C166.656 6.13976 166.672 6.21687 166.704 6.28818C166.735 6.3595 166.781 6.42343 166.839 6.47584C166.896 6.52823 166.964 6.56794 167.038 6.59235C167.112 6.61677 167.19 6.62535 167.268 6.61757C167.556 6.61757 167.824 6.46011 167.824 6.16003C167.824 5.85995 167.5 5.76177 167.264 5.7062Z" fill="#0C75BA"/>
<path d="M169.341 5.01172L168.867 6.26207L168.394 5.01172H168.122V6.56771H168.304V5.28217L168.792 6.56771H168.937L169.426 5.28217V6.56771H169.614V5.01172H169.341Z" fill="#0C75BA"/>
</svg>
