<svg width="158" height="36" viewBox="0 0 158 36" fill="none" xmlns="http://www.w3.org/2000/svg">
<path d="M23.0029 33.5229C23.0506 33.5376 23.0937 33.5645 23.128 33.6007C23.1623 33.637 23.1867 33.6815 23.1988 33.7299C23.2109 33.7783 23.2103 33.8291 23.1971 33.8772C23.1839 33.9254 23.1585 33.9693 23.1234 34.0048C22.1378 35.0649 20.815 35.7504 19.3805 35.9442C17.946 36.1381 16.4887 35.8283 15.257 35.0678C8.92136 31.4039 5.20076 25.1462 0.126569 20.235C0.0504841 20.1553 0.00572 20.0509 0.000511621 19.9409C-0.00469676 19.8308 0.0300009 19.7226 0.0982215 19.6362L1.38803 18.2861C2.64949 17.0247 4.6905 17.294 5.83149 18.5873C10.8419 24.2355 15.0479 31.8114 23.0029 33.5229Z" fill="#0C75BA"/>
<path d="M27.5849 29.1396C27.6326 29.1544 27.6757 29.1812 27.71 29.2175C27.7443 29.2538 27.7687 29.2983 27.7808 29.3467C27.7929 29.3951 27.7923 29.4459 27.7791 29.494C27.7659 29.5421 27.7405 29.5861 27.7054 29.6215L27.2837 30.0432C26.4376 30.9079 25.337 31.4793 24.1428 31.6737C22.9487 31.8682 21.7237 31.6755 20.6469 31.124C11.9938 26.6486 8.74098 16.7093 0.424556 11.8761C0.376497 11.8411 0.335965 11.7968 0.305374 11.7459C0.274783 11.6949 0.254758 11.6383 0.246493 11.5795C0.238227 11.5206 0.241889 11.4607 0.257261 11.4033C0.272633 11.3459 0.299401 11.2922 0.33597 11.2453L1.92697 9.62244C2.76676 8.78265 4.35776 8.78265 5.53064 9.65079C13.5742 15.4478 16.8483 26.0781 27.5849 29.1396Z" fill="#0C75BA"/>
<path d="M36.3051 19.951C36.3528 19.9658 36.3958 19.9926 36.4301 20.0289C36.4644 20.0652 36.4888 20.1097 36.5009 20.1581C36.513 20.2065 36.5125 20.2572 36.4993 20.3054C36.4861 20.3535 36.4607 20.3975 36.4256 20.4329L35.4936 21.4003C34.8436 22.0933 33.9908 22.5625 33.0576 22.7408C32.1244 22.919 31.1586 22.7971 30.299 22.3924C20.9904 18.2112 17.8084 7.88211 9.3715 2.83627C9.32513 2.79951 9.28667 2.75377 9.25841 2.70178C9.23016 2.64979 9.21269 2.59263 9.20707 2.53373C9.20144 2.47483 9.20777 2.4154 9.22568 2.359C9.24358 2.30261 9.27269 2.25041 9.31126 2.20554L10.9023 0.61454C11.7456 -0.214622 13.3649 -0.214622 14.5662 0.674778C22.344 6.51789 25.6465 16.9497 36.3051 19.951Z" fill="#0C75BA"/>
<path d="M32.01 24.5432C19.6718 21.0458 17.1772 7.72959 6.0686 2.97431C3.33662 1.65261 2.25587 3.00266 1.98657 3.30385C1.71727 3.60504 0.395572 4.92674 0.395572 4.92674C0.355015 4.97741 0.326389 5.03657 0.311817 5.09981C0.297245 5.16306 0.297102 5.22878 0.311398 5.29209C0.325694 5.3554 0.354062 5.41468 0.394397 5.46553C0.434733 5.51637 0.486 5.55749 0.544396 5.58582C12.5247 9.06901 15.1646 21.8572 25.7027 26.811C26.633 27.2679 27.685 27.4153 28.7051 27.2317C29.7251 27.0481 30.6597 26.5431 31.3722 25.7904L32.1234 25.0109C32.1554 24.9758 32.1782 24.9333 32.19 24.8873C32.2018 24.8413 32.202 24.7931 32.1909 24.7469C32.1797 24.7008 32.1573 24.6581 32.1258 24.6225C32.0943 24.587 32.0545 24.5598 32.01 24.5432Z" fill="#0C75BA"/>
<path d="M39.9368 15.1783C32.4318 13.0168 29.0975 5.8095 24.654 0.558144C24.6177 0.501973 24.569 0.454841 24.5117 0.420343C24.4544 0.385846 24.3899 0.364893 24.3233 0.359082C24.2566 0.353272 24.1895 0.362758 24.1271 0.386816C24.0647 0.410874 24.0086 0.44887 23.9631 0.497906L23.3642 1.09675C22.8262 1.68737 22.4466 2.40463 22.2607 3.18163C22.0748 3.95863 22.0887 4.77005 22.3012 5.5402C22.4202 5.95032 22.5917 6.34335 22.8114 6.70954C24.732 10.012 31.9995 18.1477 37.0135 17.4886C37.9488 17.4185 38.8204 16.9878 39.4443 16.2874L40.0431 15.6283C40.0776 15.5964 40.103 15.5559 40.1167 15.5109C40.1304 15.4659 40.1319 15.4181 40.1211 15.3724C40.1103 15.3266 40.0875 15.2846 40.0552 15.2505C40.0228 15.2164 39.982 15.1915 39.9368 15.1783Z" fill="#0C75BA"/>
<path d="M60.333 22.7605C60.2443 22.677 60.1271 22.6305 60.0053 22.6305C59.8835 22.6305 59.7662 22.677 59.6775 22.7605C58.2353 24.0396 56.8428 24.805 54.7663 24.805C51.2689 24.805 48.7425 21.9065 48.7425 18.3276V18.2745C48.7425 14.6956 51.3008 11.8254 54.7663 11.8254C56.6869 11.8254 58.1645 12.5979 59.5251 13.7743C59.572 13.816 59.6267 13.848 59.686 13.8684C59.7453 13.8889 59.808 13.8974 59.8706 13.8934C59.9332 13.8895 59.9944 13.8731 60.0507 13.8454C60.1069 13.8177 60.1571 13.779 60.1984 13.7318L61.6973 12.0061C61.7642 11.9292 61.7986 11.8294 61.7933 11.7276C61.788 11.6258 61.7434 11.53 61.6689 11.4605C59.9787 9.9297 57.9837 8.87376 54.7947 8.87376C49.2598 8.87376 45.3691 13.1259 45.3691 18.3276V18.3808C45.3691 23.6286 49.3378 27.7815 54.6636 27.7815C57.8881 27.7815 59.9291 26.6689 61.7504 24.8794C61.8389 24.7905 61.8886 24.6701 61.8886 24.5446C61.8886 24.4191 61.8389 24.2987 61.7504 24.2097L60.333 22.7605ZM71.4169 13.3775C70.7169 13.3634 70.0224 13.5034 69.3825 13.7875C68.7426 14.0716 68.173 14.4929 67.714 15.0216C67.6655 15.0706 67.6038 15.1044 67.5364 15.1189C67.469 15.1333 67.3988 15.1278 67.3345 15.103C67.2702 15.0782 67.2145 15.0351 67.1743 14.9791C67.1341 14.9231 67.1111 14.8566 67.1081 14.7877V8.73911C67.1081 8.64513 67.0707 8.555 67.0043 8.48855C66.9378 8.4221 66.8477 8.38477 66.7537 8.38477H64.2946C64.2006 8.38477 64.1105 8.4221 64.044 8.48855C63.9776 8.555 63.9402 8.64513 63.9402 8.73911V27.1012C63.9402 27.1951 63.9776 27.2853 64.044 27.3517C64.1105 27.4182 64.2006 27.4555 64.2946 27.4555H66.7537C66.8477 27.4555 66.9378 27.4182 67.0043 27.3517C67.0707 27.2853 67.1081 27.1951 67.1081 27.1012V19.66C67.1081 17.5339 68.3872 16.2405 70.2157 16.2405C72.0441 16.2405 73.1673 17.4666 73.1673 19.6103V27.0941C73.1673 27.188 73.2047 27.2782 73.2711 27.3446C73.3376 27.4111 73.4277 27.4484 73.5217 27.4484H75.9808C76.0748 27.4484 76.1649 27.4111 76.2314 27.3446C76.2978 27.2782 76.3352 27.188 76.3352 27.0941V18.6501C76.3245 15.4645 74.5245 13.3775 71.4169 13.3775ZM86.1257 13.459C81.9515 12.8318 78.2557 16.2512 78.2557 20.4749V20.6096C78.2557 24.8617 81.3385 27.7638 85.3426 27.7638C86.3478 27.7953 87.3479 27.6086 88.274 27.2165C89.2002 26.8244 90.0303 26.2362 90.7073 25.4924C90.744 25.4513 90.7721 25.4034 90.7902 25.3513C90.8083 25.2993 90.8159 25.2442 90.8126 25.1892C90.8093 25.1342 90.7952 25.0804 90.771 25.0309C90.7469 24.9814 90.7132 24.9371 90.6719 24.9007L89.4458 23.8129C89.3601 23.7362 89.2491 23.6937 89.134 23.6937C89.019 23.6937 88.908 23.7362 88.8222 23.8129C87.9035 24.699 86.6721 25.1868 85.3957 25.17C84.5031 25.2056 83.6264 24.9257 82.9195 24.3795C82.2126 23.8333 81.7206 23.0556 81.5298 22.1829C81.5142 22.123 81.5124 22.0603 81.5247 21.9997C81.5369 21.939 81.5628 21.8819 81.6003 21.8327C81.6379 21.7835 81.6862 21.7436 81.7415 21.7158C81.7968 21.6881 81.8577 21.6733 81.9196 21.6726H91.0794C91.2112 21.6729 91.3382 21.6228 91.4343 21.5325C91.5305 21.4423 91.5886 21.3188 91.5967 21.1872V20.7832C91.5967 17.1831 89.7612 14.0046 86.1257 13.459ZM88.0568 19.5926H81.7283C81.6844 19.5932 81.641 19.5838 81.6012 19.5651C81.5615 19.5465 81.5265 19.5191 81.4989 19.485C81.4713 19.4509 81.4518 19.411 81.4418 19.3682C81.4318 19.3255 81.4316 19.2811 81.4412 19.2383C81.8204 17.2788 83.135 15.9464 84.9634 15.9464C86.9158 15.9464 88.0923 17.3355 88.4076 19.178C88.4164 19.2288 88.414 19.2808 88.4006 19.3305C88.3872 19.3802 88.3631 19.4264 88.3301 19.4658C88.297 19.5053 88.2558 19.5371 88.2092 19.559C88.1626 19.5809 88.1118 19.5923 88.0604 19.5926H88.0568ZM101.121 13.3775C100.427 13.3622 99.7368 13.4989 99.1003 13.778C98.4637 14.0571 97.8958 14.4719 97.4363 14.9933C97.3886 15.0491 97.3248 15.0887 97.2537 15.1067C97.1825 15.1247 97.1076 15.1201 97.0391 15.0937C96.9707 15.0672 96.9121 15.0202 96.8715 14.959C96.831 14.8979 96.8104 14.8257 96.8126 14.7523V14.0224C96.8126 13.9284 96.7753 13.8383 96.7088 13.7718C96.6424 13.7053 96.5523 13.668 96.4583 13.668H94.0204C93.9264 13.668 93.8363 13.7053 93.7698 13.7718C93.7034 13.8383 93.6661 13.9284 93.6661 14.0224V27.0905C93.6661 27.1845 93.7034 27.2746 93.7698 27.3411C93.8363 27.4075 93.9264 27.4449 94.0204 27.4449H96.4583C96.5523 27.4449 96.6424 27.4075 96.7088 27.3411C96.7753 27.2746 96.8126 27.1845 96.8126 27.0905V19.6706C96.8126 17.5445 98.0918 16.2512 99.9202 16.2512C101.749 16.2512 102.872 17.4772 102.872 19.621V27.0941C102.872 27.188 102.909 27.2782 102.976 27.3446C103.042 27.4111 103.132 27.4484 103.226 27.4484H105.664C105.758 27.4484 105.848 27.4111 105.915 27.3446C105.981 27.2782 106.018 27.188 106.018 27.0941V18.6501C106.029 15.4645 104.225 13.3775 101.121 13.3775ZM125.908 9.17141H123.172C123.098 9.17134 123.025 9.18979 122.96 9.22507C122.895 9.26035 122.84 9.31133 122.8 9.37338L117.74 17.2327C117.7 17.2949 117.645 17.346 117.58 17.3814C117.515 17.4168 117.442 17.4353 117.368 17.4353C117.294 17.4353 117.221 17.4168 117.156 17.3814C117.091 17.346 117.036 17.2949 116.996 17.2327L111.936 9.37338C111.896 9.31133 111.841 9.26035 111.776 9.22507C111.711 9.18979 111.638 9.17134 111.564 9.17141H108.828C108.769 9.16999 108.711 9.1804 108.656 9.20202C108.601 9.22365 108.551 9.25605 108.508 9.29732C108.466 9.33859 108.432 9.3879 108.41 9.44234C108.387 9.49679 108.375 9.55526 108.375 9.61433V27.0055C108.375 27.123 108.421 27.2356 108.505 27.3187C108.588 27.4017 108.7 27.4484 108.818 27.4484H111.089C111.207 27.4484 111.319 27.4017 111.402 27.3187C111.485 27.2356 111.532 27.123 111.532 27.0055V15.8543C111.532 15.7594 111.563 15.667 111.62 15.5909C111.677 15.5147 111.756 15.4588 111.847 15.4314C111.938 15.404 112.035 15.4066 112.125 15.4387C112.214 15.4708 112.291 15.5308 112.343 15.6098L116.907 22.4451C116.946 22.5081 116.999 22.5606 117.063 22.598C117.126 22.6354 117.198 22.6564 117.272 22.6592C117.346 22.662 117.419 22.6465 117.485 22.6141C117.551 22.5817 117.609 22.5334 117.652 22.4734L122.325 15.5531C122.378 15.4739 122.455 15.4138 122.545 15.3817C122.635 15.3497 122.732 15.3474 122.823 15.3753C122.914 15.4031 122.994 15.4596 123.051 15.5363C123.107 15.613 123.137 15.7059 123.137 15.8012V27.009C123.137 27.1265 123.183 27.2392 123.266 27.3222C123.35 27.4053 123.462 27.452 123.58 27.452H125.904C126.022 27.452 126.134 27.4053 126.217 27.3222C126.3 27.2392 126.347 27.1265 126.347 27.009V9.61433C126.347 9.49747 126.301 9.38535 126.219 9.30238C126.136 9.21942 126.025 9.17234 125.908 9.17141ZM135.89 13.459C131.715 12.8318 128.016 16.2512 128.016 20.4749V20.6096C128.016 24.8617 131.095 27.7638 135.103 27.7638C136.097 27.793 137.086 27.6089 138.003 27.2238C138.919 26.8388 139.743 26.2617 140.418 25.5314C140.459 25.4854 140.491 25.4318 140.511 25.3735C140.532 25.3153 140.54 25.2536 140.536 25.192C140.533 25.1304 140.517 25.0701 140.49 25.0147C140.463 24.9592 140.425 24.9096 140.379 24.8688L139.181 23.8058C139.098 23.7311 138.99 23.6897 138.878 23.6897C138.767 23.6897 138.659 23.7311 138.575 23.8058C137.656 24.6956 136.422 25.186 135.142 25.17C134.246 25.2056 133.367 24.9237 132.659 24.3739C131.951 23.8241 131.46 23.0418 131.272 22.1652C131.257 22.1069 131.255 22.0458 131.266 21.9865C131.278 21.9273 131.303 21.8715 131.34 21.8236C131.376 21.7756 131.423 21.7367 131.478 21.7099C131.532 21.6831 131.591 21.6692 131.652 21.6691H140.804C140.942 21.6694 141.075 21.6171 141.176 21.523C141.276 21.4289 141.337 21.2999 141.346 21.1624V20.7832C141.357 17.1831 139.522 14.0046 135.89 13.459ZM137.633 19.5926H131.63C131.569 19.5922 131.508 19.5779 131.453 19.5508C131.398 19.5237 131.35 19.4845 131.312 19.4361C131.274 19.3877 131.248 19.3314 131.235 19.2714C131.222 19.2113 131.223 19.1492 131.237 19.0895C131.659 17.2221 132.949 15.9642 134.724 15.9642C136.598 15.9642 137.757 17.2469 138.125 18.9832C138.14 19.0565 138.138 19.1321 138.12 19.2047C138.102 19.2773 138.069 19.345 138.022 19.4032C137.975 19.4613 137.916 19.5084 137.848 19.5411C137.781 19.5739 137.708 19.5915 137.633 19.5926ZM156.682 8.38831H154.365C154.31 8.38784 154.255 8.39831 154.204 8.41911C154.153 8.43992 154.106 8.47064 154.067 8.50951C154.028 8.54839 153.997 8.59464 153.975 8.6456C153.954 8.69656 153.943 8.75123 153.943 8.80643V14.6921C153.942 14.7736 153.917 14.853 153.871 14.9204C153.825 14.9879 153.761 15.0405 153.686 15.0717C153.61 15.103 153.527 15.1115 153.447 15.0963C153.367 15.0811 153.293 15.0428 153.235 14.9862C152.714 14.4615 152.092 14.048 151.407 13.7708C150.722 13.4937 149.987 13.3586 149.248 13.3739C145.956 13.3739 142.849 15.9571 142.849 20.5281V20.5812C142.849 25.1523 146.01 27.7354 149.248 27.7354C149.994 27.7491 150.733 27.6045 151.419 27.3113C152.104 27.0182 152.719 26.583 153.224 26.0346C153.282 25.9783 153.355 25.9401 153.435 25.9246C153.514 25.9091 153.597 25.9171 153.672 25.9475C153.747 25.9779 153.811 26.0294 153.858 26.0958C153.904 26.1622 153.93 26.2407 153.933 26.3216V27.0303C153.933 27.1421 153.977 27.2494 154.056 27.3284C154.135 27.4075 154.243 27.452 154.354 27.452H156.672C156.784 27.452 156.891 27.4075 156.97 27.3284C157.049 27.2494 157.093 27.1421 157.093 27.0303V8.80998C157.093 8.69996 157.05 8.59429 156.974 8.51551C156.897 8.43673 156.792 8.39108 156.682 8.38831ZM153.996 20.5812C153.996 23.2176 152.115 24.9964 149.999 24.9964C147.884 24.9964 146.031 23.2459 146.031 20.5812V20.5281C146.031 17.7855 147.831 16.113 149.999 16.113C152.168 16.113 153.996 17.8634 153.996 20.5281V20.5812Z" fill="#0C75BA"/>
</svg>
