<svg width="130" height="24" viewBox="0 0 130 24" fill="none" xmlns="http://www.w3.org/2000/svg">
<path d="M27.0474 0.603516V1.20072L13.8251 24.0007H13.2279L0 1.20072V0.603516H6.60278L13.5237 12.6091L20.4446 0.603516H27.0474Z" fill="#0C75BA"/>
<path d="M56.8242 13.9542V0.603516H63.0084V13.6305C63.0084 16.3598 64.9898 18.1905 67.9591 18.1905C70.9284 18.1905 72.9098 16.3598 72.9098 13.6305V0.603516H79.0939V13.9542C79.0939 19.8314 74.6288 23.7384 67.9312 23.7384C61.2335 23.7384 56.8242 19.8091 56.8242 13.9542Z" fill="#0C75BA"/>
<path d="M106.096 18.1291V23.4425H87.248V0.603516H93.4266V18.1291H106.096Z" fill="#0C75BA"/>
<path d="M129.857 5.88351H121.959V23.4425H115.775V5.88351H107.821V0.603516H129.857V5.88351Z" fill="#0C75BA"/>
<path d="M25.2002 23.4418V22.8111L38.4225 0H39.0253L52.2476 22.8111V23.4418H25.2002Z" fill="#0C75BA"/>
</svg>
