<svg width="16" height="16" viewBox="0 0 16 16" fill="none" xmlns="http://www.w3.org/2000/svg">
<g clip-path="url(#clip0_523_2319)">
<path fill-rule="evenodd" clip-rule="evenodd" d="M5.18779 2.16105C5.06513 2.05556 4.9083 1.99828 4.74653 1.99987L4.73997 1.99993V1.9999H2.65543C2.57683 2.01004 2.5006 2.03412 2.43034 2.07108C2.35269 2.11193 2.28386 2.16772 2.2278 2.23523C2.17175 2.30274 2.12958 2.38065 2.1037 2.4645C2.07822 2.54705 2.06904 2.63376 2.07665 2.7198C2.29151 4.68086 2.96578 6.56365 4.04477 8.21529L4.04928 8.2222L4.04923 8.22223C5.02068 9.75023 6.31632 11.0459 7.84432 12.0173L7.84939 12.0205L7.84937 12.0206C9.48325 13.0801 11.3415 13.7441 13.2766 13.9599H13.3666C13.5435 13.9599 13.713 13.8897 13.838 13.7646C13.9631 13.6396 14.0333 13.47 14.0333 13.2932V11.4882C14.0099 11.417 13.9982 11.3412 14.0002 11.2634C14.0042 11.0999 13.9481 10.9406 13.8424 10.8159C13.7371 10.6916 13.59 10.6102 13.4289 10.587C12.7408 10.495 12.0652 10.3266 11.4144 10.0848L11.4121 10.0839C11.2928 10.0391 11.1631 10.0294 11.0384 10.056C10.9143 10.0824 10.8003 10.1438 10.7098 10.2329L9.86471 11.078C9.6525 11.2902 9.32466 11.3344 9.06378 11.1861C7.29043 10.1777 5.82213 8.70944 4.81378 6.9361C4.66544 6.67522 4.70969 6.34737 4.9219 6.13516L5.767 5.29007C5.85605 5.19961 5.91743 5.0856 5.94391 4.96144C5.97049 4.83678 5.96079 4.70712 5.91594 4.58781L5.91505 4.58543L5.91505 4.58543C5.67328 3.93475 5.50486 3.25912 5.4129 2.5711C5.38986 2.41173 5.30991 2.26607 5.18779 2.16105ZM4.73702 0.666569C5.22105 0.662677 5.69012 0.834464 6.05717 1.15013C6.42514 1.46659 6.66549 1.90605 6.73341 2.3866L6.73415 2.3918L6.73413 2.39181C6.81282 2.98208 6.95717 3.56172 7.1645 4.11996C7.29862 4.47753 7.32757 4.86603 7.24791 5.23954C7.16816 5.61351 6.98287 5.95677 6.71401 6.22866L6.71139 6.23131L6.71138 6.23131L6.23332 6.70937C7.01722 7.93913 8.06074 8.98266 9.29051 9.76656L9.76857 9.2885L9.77121 9.28587C10.0431 9.017 10.3864 8.83172 10.7603 8.75196C11.1338 8.67231 11.5223 8.70125 11.8799 8.83537C12.4381 9.0427 13.0178 9.18706 13.6081 9.26575L13.6131 9.26642L13.6131 9.26644C14.0989 9.33497 14.5425 9.57965 14.8596 9.95393C15.1258 10.2681 15.2873 10.6553 15.3251 11.0616C15.3521 11.1344 15.3666 11.2126 15.3666 11.2932V13.2932C15.3666 13.8237 15.1559 14.3324 14.7809 14.7075C14.4058 15.0825 13.8971 15.2932 13.3666 15.2932H13.24C13.2159 15.2932 13.1919 15.2919 13.168 15.2893C11.0139 15.0553 8.94464 14.3194 7.12643 13.1409C5.43568 12.0654 4.00183 10.6317 2.92626 8.94106C1.7328 7.113 0.987384 5.02918 0.750574 2.85888L0.749599 2.84931C0.724825 2.58723 0.752033 2.32285 0.829661 2.07131C0.907289 1.81977 1.03381 1.58603 1.20197 1.3835C1.37013 1.18097 1.57661 1.01362 1.80959 0.891065C2.04256 0.768507 2.29744 0.693148 2.5596 0.669308C2.57967 0.667483 2.59982 0.666569 2.61997 0.666569H4.73702ZM8.70364 1.26338C8.74223 0.897213 9.07034 0.631657 9.4365 0.670239C10.9463 0.829327 12.3566 1.49898 13.4342 2.56845C14.5117 3.63791 15.192 5.04314 15.3624 6.55172C15.4038 6.91758 15.1407 7.24768 14.7748 7.28902C14.409 7.33036 14.0789 7.06728 14.0375 6.70142C13.9012 5.49455 13.357 4.37037 12.4949 3.5148C11.6329 2.65922 10.5046 2.1235 9.29678 1.99623C8.93062 1.95765 8.66506 1.62954 8.70364 1.26338ZM8.71257 3.87093C8.7838 3.50969 9.13438 3.2746 9.49562 3.34583C10.2824 3.50098 11.0044 3.88905 11.5679 4.45968C12.1314 5.0303 12.5104 5.75713 12.6556 6.54583C12.7223 6.90793 12.4828 7.25553 12.1207 7.32221C11.7586 7.38889 11.411 7.14941 11.3443 6.78731C11.2475 6.26151 10.9949 5.77696 10.6192 5.39654C10.2435 5.01612 9.7622 4.75741 9.23767 4.65397C8.87643 4.58274 8.64134 4.23216 8.71257 3.87093Z" fill="#0C75BA"/>
</g>
<defs>
<clipPath id="clip0_523_2319">
<rect width="16" height="16" fill="white"/>
</clipPath>
</defs>
</svg>
