<svg width="23" height="22" viewBox="0 0 23 22" fill="none" xmlns="http://www.w3.org/2000/svg">
<path d="M13.05 5.0001C14.0335 5.19403 14.936 5.67912 15.6404 6.39241C16.3448 7.10569 16.8185 8.01423 17 9.0001M13.05 1.0001C15.0883 1.21487 16.9922 2.11889 18.4469 3.56268C19.9016 5.00646 20.8199 6.90351 21.05 8.9401M21.05 15.9401V18.9401C21.05 19.4705 20.8393 19.9792 20.4642 20.3543C20.0891 20.7294 19.5804 20.9401 19.05 20.9401H18.86C15.7828 20.6057 12.827 19.5542 10.23 17.8701C7.81425 16.3342 5.76586 14.2859 4.23001 11.8701C2.52393 9.25853 1.45837 6.28114 1.12001 3.1801C1.09523 2.91802 1.12244 2.65363 1.20007 2.4021C1.2777 2.15056 1.40422 1.91682 1.57238 1.71429C1.74053 1.51176 1.94702 1.34441 2.17999 1.22185C2.41297 1.0993 2.66784 1.02394 2.93001 1.0001H6.11001C6.59531 0.995321 7.0658 1.16718 7.43377 1.48363C7.80174 1.80008 8.04208 2.23954 8.11001 2.7201C8.23796 3.67991 8.47275 4.62242 8.81001 5.5301C8.94455 5.88802 8.97367 6.27701 8.89391 6.65098C8.81416 7.02494 8.62887 7.36821 8.36001 7.6401L7.09001 8.9101C8.51356 11.4136 10.5865 13.4865 13.09 14.9101L14.36 13.6401C14.6319 13.3712 14.9752 13.1859 15.3491 13.1062C15.7231 13.0264 16.1121 13.0556 16.47 13.1901C17.3777 13.5274 18.3202 13.7621 19.28 13.8901C19.7658 13.9586 20.2094 14.2033 20.5265 14.5776C20.8437 14.9519 21.0122 15.4297 21 15.9201L21.05 15.9401Z" stroke="#0C75BA" stroke-width="2" stroke-linecap="round" stroke-linejoin="round"/>
</svg>
