<svg width="16" height="16" viewBox="0 0 16 16" fill="none" xmlns="http://www.w3.org/2000/svg">
<g clip-path="url(#clip0_523_2333)">
<path fill-rule="evenodd" clip-rule="evenodd" d="M8.00002 2.00008C4.68631 2.00008 2.00002 4.68637 2.00002 8.00008C2.00002 11.3138 4.68631 14.0001 8.00002 14.0001C11.3137 14.0001 14 11.3138 14 8.00008C14 4.68637 11.3137 2.00008 8.00002 2.00008ZM0.666687 8.00008C0.666687 3.94999 3.94993 0.666748 8.00002 0.666748C12.0501 0.666748 15.3334 3.94999 15.3334 8.00008C15.3334 12.0502 12.0501 15.3334 8.00002 15.3334C3.94993 15.3334 0.666687 12.0502 0.666687 8.00008Z" fill="#0C75BA"/>
<path fill-rule="evenodd" clip-rule="evenodd" d="M7.99998 3.33325C8.36817 3.33325 8.66665 3.63173 8.66665 3.99992V7.5879L10.9648 8.73697C11.2941 8.90163 11.4276 9.30208 11.2629 9.63139C11.0983 9.96071 10.6978 10.0942 10.3685 9.92954L7.70184 8.5962C7.47598 8.48328 7.33331 8.25243 7.33331 7.99992V3.99992C7.33331 3.63173 7.63179 3.33325 7.99998 3.33325Z" fill="#0C75BA"/>
</g>
<defs>
<clipPath id="clip0_523_2333">
<rect width="16" height="16" fill="white"/>
</clipPath>
</defs>
</svg>
