<svg width="40" height="40" viewBox="0 0 40 40" fill="none" xmlns="http://www.w3.org/2000/svg">
<rect x="4.99902" y="5" width="30" height="30" fill="white"/>
<path d="M31.6667 0H8.33333C3.73333 0 0 3.73333 0 8.33333V31.6667C0 36.2667 3.73333 40 8.33333 40H31.6667C36.2667 40 40 36.2667 40 31.6667V8.33333C40 3.73333 36.2667 0 31.6667 0ZM26.6667 11.6667H23.4667C22.4333 11.6667 21.6667 12.0833 21.6667 13.15V15H26.6667L26.2667 20H21.6667V33.3333H16.6667V20H13.3333V15H16.6667V11.8C16.6667 8.43333 18.4333 6.66667 22.4333 6.66667H26.6667V11.6667Z" fill="#3B5998"/>
</svg>
