<svg width="40" height="40" viewBox="0 0 40 40" fill="none" xmlns="http://www.w3.org/2000/svg">
<rect x="4.66504" y="5" width="30" height="30" fill="white"/>
<path d="M31.6667 0H8.33333C3.73333 0 0 3.73333 0 8.33333V31.6667C0 36.2667 3.73333 40 8.33333 40H31.6667C36.2667 40 40 36.2667 40 31.6667V8.33333C40 3.73333 36.2667 0 31.6667 0ZM14.45 27.7833C10.15 27.7833 6.66667 24.3 6.66667 20C6.66667 15.7 10.15 12.2167 14.45 12.2167C16.55 12.2167 18.3 12.9833 19.6667 14.25L17.55 16.2833C16.9667 15.7333 15.9667 15.0833 14.45 15.0833C11.8 15.0833 9.63333 17.2833 9.63333 20C9.63333 22.7167 11.8 24.9167 14.45 24.9167C17.5333 24.9167 18.6833 22.7 18.8667 21.5667H14.45V18.9H21.8C21.8667 19.2833 21.9167 19.6833 21.9167 20.1833C21.9167 24.6167 18.9333 27.7833 14.45 27.7833ZM33.3333 21.1167H30V24.45H27.7833V21.1167H24.45V18.9H27.7833V15.5667H30V18.9H33.3333V21.1167Z" fill="#4285F4"/>
</svg>
