<svg width="50" height="50" viewBox="0 0 50 50" fill="none" xmlns="http://www.w3.org/2000/svg">
<path d="M43.1314 11.0346C44.0843 10.391 44.3044 9.07241 43.5324 8.22022C38.9582 3.17135 32.3494 0 25 0C11.1929 0 0 11.1929 0 25C0 29.9218 1.42229 34.5115 3.87828 38.3803C4.58753 39.4976 6.17408 39.4655 6.95193 38.3949L11.063 32.7365C11.5057 32.1272 11.5577 31.3252 11.2718 30.6285C10.5594 28.8929 10.1667 26.9923 10.1667 25C10.1667 16.8078 16.8078 10.1667 25 10.1667C28.951 10.1667 32.5413 11.7114 35.1997 14.2299C35.9473 14.9382 37.0896 15.1157 37.943 14.5393L43.1314 11.0346Z" fill="#23436A"/>
<path d="M43.4313 41.8907C44.2114 41.0399 43.994 39.7146 43.0375 39.0685L37.84 35.5577C36.9926 34.9853 35.859 35.1562 35.1109 35.8535C32.4616 38.3226 28.9072 39.8333 25 39.8333C24.5836 39.8333 24.1712 39.8161 23.7634 39.7825C23.0077 39.7201 22.2542 40.0172 21.8085 40.6306L17.708 46.2745C16.9324 47.342 17.3869 48.8564 18.6636 49.1899C20.6872 49.7185 22.8107 49.9999 25 49.9999C32.2955 49.9999 38.8611 46.875 43.4313 41.8907Z" fill="#0C75BA"/>
<g clip-path="url(#clip0_503_2645)">
<path d="M24.8651 14.2948C25.1762 13.8667 24.8871 13.2732 24.3587 13.3018C20.9715 13.485 17.6924 15.1366 15.5432 18.0947C12.8077 21.8598 12.6509 26.7118 14.7391 30.5435L0.56012 50.0592L3.12201 51.9205L15.5635 34.7963C16.1586 33.9771 17.3051 33.7956 18.1243 34.3907C18.9434 34.9858 19.125 36.1324 18.5299 36.9515L6.0884 54.0757L8.65029 55.937L22.8293 36.4213C27.1187 37.2233 31.6847 35.5748 34.4203 31.8097C36.5838 28.8318 37.1343 25.1742 36.2369 21.8791C36.0982 21.37 35.4465 21.2806 35.1363 21.7075L30.0322 28.7327C29.8225 29.0214 29.4748 29.1764 29.1199 29.1396L22.9902 28.5027C22.634 28.4657 22.3248 28.2411 22.1795 27.9137L19.6796 22.2809C19.5349 21.9547 19.5749 21.5761 19.7847 21.2874L24.8651 14.2948Z" fill="#23436A"/>
</g>
<defs>
<clipPath id="clip0_503_2645">
<rect width="50" height="50" rx="25" fill="white"/>
</clipPath>
</defs>
</svg>
