<svg width="35" height="36" viewBox="0 0 35 36" fill="none" xmlns="http://www.w3.org/2000/svg">
<path d="M29.6652 8.58007C30.6181 7.9364 30.8398 6.61463 30.0374 5.79086C26.8585 2.52703 22.416 0.5 17.5 0.5C7.83502 0.5 0 8.33502 0 18C0 21.1627 0.838994 24.1295 2.30656 26.6899C2.96465 27.838 4.55291 27.8079 5.33076 26.7372L7.52767 23.7135C7.97032 23.1042 8.01742 22.3033 7.75654 21.5968C7.34269 20.4761 7.11667 19.2645 7.11667 18C7.11667 12.2654 11.7654 7.61667 17.5 7.61667C20.0699 7.61667 22.4217 8.55029 24.2348 10.0969C25.0183 10.7652 26.158 10.9491 27.0114 10.3727L29.6652 8.58007Z" fill="#23436A"/>
<path d="M29.9615 30.2867C30.7719 29.4648 30.5531 28.1363 29.5966 27.4902L26.9351 25.6925C26.0877 25.1201 24.9567 25.2973 24.1736 25.955C22.3689 27.4706 20.0411 28.3834 17.5 28.3834C17.334 28.3834 17.1689 28.3795 17.0048 28.3718C16.2474 28.3362 15.4934 28.6284 15.0477 29.2419L12.8578 32.2561C12.0822 33.3236 12.5391 34.839 13.8295 35.1145C15.0131 35.3671 16.241 35.5 17.5 35.5C22.377 35.5 26.7879 33.5051 29.9615 30.2867Z" fill="#0C75BA"/>
<g clip-path="url(#clip0_523_2303)">
<path d="M17.4056 10.5064C17.6233 10.2067 17.421 9.79124 17.0511 9.81124C14.6801 9.93948 12.3847 11.0956 10.8803 13.1663C8.96538 15.8019 8.85563 19.1983 10.3174 21.8804L0.39209 35.5414L2.18541 36.8443L10.8944 24.8574C11.311 24.284 12.1136 24.1569 12.687 24.5735C13.2604 24.9901 13.3875 25.7927 12.9709 26.3661L4.26189 38.353L6.05521 39.6559L15.9805 25.9949C18.9831 26.5563 22.1793 25.4024 24.0942 22.7668C25.6087 20.6823 25.994 18.1219 25.3658 15.8154C25.2687 15.459 24.8125 15.3964 24.5954 15.6952L21.0226 20.6129C20.8757 20.815 20.6324 20.9235 20.3839 20.8977L16.0931 20.4519C15.8438 20.426 15.6273 20.2687 15.5256 20.0396L13.7758 16.0966C13.6744 15.8683 13.7024 15.6033 13.8493 15.4012L17.4056 10.5064Z" fill="#23436A"/>
</g>
<defs>
<clipPath id="clip0_523_2303">
<rect y="0.5" width="35" height="35" rx="17.5" fill="white"/>
</clipPath>
</defs>
</svg>
