<svg width="47" height="46" viewBox="0 0 47 46" fill="none" xmlns="http://www.w3.org/2000/svg">
<path d="M23.0786 6.05385L15.2611 8.13258C14.5458 7.20124 13.7688 6.27716 12.8774 5.38394C10.8804 3.3869 8.70541 1.7802 6.75557 0.856114C3.70919 -0.581751 2.13334 0.0573005 1.34724 0.845222C-1.05647 3.24893 2.01534 8.50839 5.88595 12.3754C6.77554 13.265 7.70507 14.0638 8.63097 14.7718L6.55405 22.5784C6.38703 23.2048 6.56858 23.871 7.02608 24.3285L28.1692 45.4681C28.5105 45.8076 28.968 46 29.4528 46C29.9357 46 30.395 45.8094 30.7363 45.4681L45.9683 30.2325C46.6799 29.5226 46.6799 28.3753 45.9701 27.6654L24.8287 6.52588C24.3731 6.06474 23.7068 5.88864 23.0786 6.05385ZM3.26802 2.77508C3.83809 2.39383 7.13319 3.4922 10.9493 7.31017C11.4631 7.82395 11.9515 8.35589 12.4054 8.89146L11.0419 9.25455C10.4138 9.42158 9.9236 9.91176 9.75294 10.5435L9.39347 11.8997C8.87969 11.464 8.35502 10.992 7.814 10.451C3.98514 6.62573 2.89948 3.33062 3.26802 2.77508ZM13.7198 17.5423C14.2771 17.6911 14.7655 17.7601 15.1958 17.7583C16.2724 17.7583 16.9713 17.3625 17.4161 16.9159C17.948 16.3858 17.9535 15.518 17.4216 14.9879C16.8878 14.4577 16.0309 14.4541 15.4953 14.986C15.2629 15.1367 14.5676 15.0296 13.5854 14.6157C13.7379 14.2871 13.9395 13.9748 14.21 13.7061C15.4481 12.4643 17.4615 12.4643 18.7015 13.7061C19.9433 14.9461 19.9433 16.9595 18.7015 18.1995C17.4615 19.4412 15.4499 19.4412 14.2081 18.1995C14.0103 17.9979 13.8523 17.7746 13.7198 17.5423ZM20.6204 23.3954V22.4731C20.6186 21.4365 20.9545 20.5759 21.6262 19.8897C22.298 19.2071 23.2529 18.8657 24.4911 18.8676C25.7456 18.8676 26.7096 19.2107 27.3813 19.8915C28.0512 20.5741 28.3889 21.4383 28.3907 22.4749V23.3954C28.3907 24.4393 28.053 25.2926 27.3831 25.9697C26.7096 26.6451 25.7565 26.9846 24.5165 26.9846C23.2692 26.9828 22.307 26.6469 21.6335 25.9643C20.9581 25.2817 20.6186 24.4302 20.6204 23.3954ZM36.6839 32.2949L36.6857 33.2172C36.6857 34.2647 36.3516 35.1234 35.6835 35.8006C35.0154 36.4778 34.0641 36.8136 32.8223 36.8136C31.5751 36.8136 30.6111 36.4723 29.9284 35.797C29.2458 35.1162 28.9045 34.2538 28.9027 33.2172L28.9045 32.2931C28.9045 31.2619 29.244 30.4068 29.9248 29.7223C30.602 29.0415 31.5624 28.6966 32.8024 28.6966C34.0514 28.6984 35.0172 29.0379 35.6872 29.7187C36.3534 30.3923 36.6839 31.2564 36.6839 32.2949ZM25.1519 35.2668L23.2692 34.321L31.7929 20.6776L33.6756 21.6235L25.1519 35.2668Z" fill="white"/>
</svg>
