<svg width="300" height="300" viewBox="0 0 300 300" fill="none" xmlns="http://www.w3.org/2000/svg">
<path d="M267.568 60.2777C268.52 59.6341 268.736 58.3202 268.026 57.416C240.564 22.4562 197.904 0 150 0C67.1573 0 0 67.1573 0 150C0 184.253 11.4811 215.824 30.8049 241.076C31.6091 242.127 33.1937 242.093 33.9716 241.023L69.9858 191.453C70.4285 190.844 70.4896 190.039 70.1561 189.364C64.294 177.496 61 164.132 61 150C61 100.847 100.847 61 150 61C176.971 61 201.139 72.9969 217.461 91.9455C218.133 92.7257 219.283 92.8933 220.136 92.3168L267.568 60.2777Z" fill="#23436A"/>
<path d="M267.504 243.245C268.222 242.341 268.009 241.02 267.052 240.374L219.588 208.313C218.741 207.741 217.6 207.902 216.925 208.67C200.613 227.263 176.677 239 150 239C145.389 239 140.859 238.649 136.437 237.973C135.687 237.858 134.933 238.165 134.487 238.779L98.5449 288.249C97.7693 289.317 98.2217 290.83 99.464 291.274C115.254 296.923 132.268 300 150 300C197.602 300 240.025 277.826 267.504 243.245Z" fill="#0C75BA"/>
<g clip-path="url(#clip0_503_2636)">
<path d="M149.191 85.7691C151.057 83.2002 149.323 79.6394 146.152 79.8109C125.829 80.9101 106.155 90.8196 93.2593 108.568C76.8461 131.159 75.9053 160.271 88.4346 183.261L3.36069 300.355L18.732 311.523L93.3807 208.778C96.9516 203.863 103.831 202.774 108.746 206.344C113.66 209.915 114.75 216.794 111.179 221.709L36.5304 324.454L51.9017 335.622L136.976 218.528C162.712 223.34 190.108 213.449 206.522 190.858C219.503 172.991 222.806 151.045 217.421 131.275C216.589 128.22 212.679 127.684 210.818 130.245L180.193 172.396C178.935 174.129 176.849 175.059 174.719 174.838L137.941 171.017C135.804 170.795 133.949 169.447 133.077 167.483L118.078 133.685C117.209 131.728 117.449 129.457 118.708 127.725L149.191 85.7691Z" fill="#23436A"/>
</g>
<defs>
<clipPath id="clip0_503_2636">
<rect width="300" height="300" rx="150" fill="white"/>
</clipPath>
</defs>
</svg>
