<svg width="40" height="40" viewBox="0 0 40 40" fill="none" xmlns="http://www.w3.org/2000/svg">
<rect x="6.66797" y="5" width="30" height="30" fill="white"/>
<path d="M31.6667 0H8.33333C3.73333 0 0 3.73333 0 8.33333V31.6667C0 36.2667 3.73333 40 8.33333 40H31.6667C36.2667 40 40 36.2667 40 31.6667V8.33333C40 3.73333 36.2667 0 31.6667 0ZM31.4333 15.4C31.7833 23.0833 26.05 31.6667 15.8833 31.6667C12.8 31.6667 9.91667 30.7667 7.5 29.2C10.4 29.5333 13.3 28.7333 15.6 26.9333C13.2 26.8833 11.1833 25.3 10.4833 23.1333C11.3333 23.3 12.1833 23.25 12.95 23.0333C10.3167 22.5 8.5 20.1333 8.56667 17.6C9.3 18.0167 10.15 18.25 11.05 18.2833C8.61667 16.6833 7.91667 13.4667 9.35 11C12.05 14.3167 16.0833 16.4833 20.6333 16.7167C19.8333 13.3 22.4333 10 25.9667 10C27.5333 10 28.9667 10.6667 29.9667 11.7333C31.2167 11.4833 32.3833 11.0333 33.45 10.4C33.0333 11.6833 32.1667 12.75 31.05 13.4333C32.15 13.3 33.2167 13 34.2 12.5667C33.4333 13.6667 32.5 14.6167 31.4333 15.4Z" fill="#2AA3EF"/>
</svg>
